<svg id="Camada_1" data-name="Camada 1" xmlns="http://www.w3.org/2000/svg" viewBox="0 0 281.91 345.88"><defs><style>.cls-1{fill:#ffc300;}.cls-2{fill:#001d3d;}</style></defs><title>deoest_logo</title><path class="cls-1" d="M118.62,116.49l95.06,132.23-104,151.53c1.18,16.46,8.7,23.4,26.38,15.06L252,246.37c4.37-11.83,4.76-22.14-2.12-29.65L159.57,90.6C132,78.12,119,87.85,118.62,116.49Z" transform="translate(-109.66 -85.27)"/><path class="cls-1" d="M294.62,251.06l90.12,133.19c4.82,20.74.15,41-31.06,30.82L257.45,282.6c-5.85-10.55-8.61-21.09,0-31.54L368,90.13c10.36-2.15,21,.54,23.53,15.53" transform="translate(-109.66 -85.27)"/><path class="cls-2" d="M178.07,431.15a33.91,33.91,0,0,1-17.75-4.78,36.44,36.44,0,0,1-12.79-12.79,35.31,35.31,0,0,1,0-35.48,36.36,36.36,0,0,1,12.79-12.82,35.32,35.32,0,0,1,30.41-2.43,35.17,35.17,0,0,1,10.64,6.52V336.51h12v59.38a34.79,34.79,0,0,1-4.87,17.76,36.4,36.4,0,0,1-12.76,12.72A33.8,33.8,0,0,1,178.07,431.15Zm0-12a22.55,22.55,0,0,0,11.74-3.13,23.59,23.59,0,0,0,8.42-8.42,23.65,23.65,0,0,0,0-23.55,23.56,23.56,0,0,0-8.42-8.41,23.52,23.52,0,0,0-23.48,0,23.64,23.64,0,0,0-8.42,8.41,23.71,23.71,0,0,0,0,23.55,23.67,23.67,0,0,0,8.42,8.42A22.57,22.57,0,0,0,178.07,419.18Z" transform="translate(-109.66 -85.27)"/><path class="cls-2" d="M244.35,360.5a33.76,33.76,0,0,1,16,3.9,36.43,36.43,0,0,1,12.31,10.47,34.84,34.84,0,0,1,6.46,14.94,44.33,44.33,0,0,1,.51,6,34.82,34.82,0,0,1-.51,6H221.81a23.32,23.32,0,0,0,8.23,12.5,22.41,22.41,0,0,0,14.31,4.84,23,23,0,0,0,16.58-6.9l7.41,9.44a35.49,35.49,0,0,1-10.92,6.93,35.42,35.42,0,0,1-29.15-1.36A35.78,35.78,0,0,1,216,416.84a35.19,35.19,0,0,1-6.43-15,43.09,43.09,0,0,1-.51-6,38.71,38.71,0,0,1,.51-6A35.16,35.16,0,0,1,216,374.87a36.05,36.05,0,0,1,12.31-10.47A34,34,0,0,1,244.35,360.5Zm0,12A22.42,22.42,0,0,0,230,377.38a23.29,23.29,0,0,0-8.23,12.43h45.07a23.29,23.29,0,0,0-8.23-12.43A22.41,22.41,0,0,0,244.35,372.53Z" transform="translate(-109.66 -85.27)"/><path class="cls-2" d="M310.62,360.5a34.08,34.08,0,0,1,17.72,4.78,36.28,36.28,0,0,1,12.82,12.82,35.31,35.31,0,0,1,0,35.48,36.36,36.36,0,0,1-12.82,12.79,35.31,35.31,0,0,1-35.48,0,36.33,36.33,0,0,1-12.78-12.79,35.31,35.31,0,0,1,0-35.48,36.25,36.25,0,0,1,12.78-12.82A34.06,34.06,0,0,1,310.62,360.5Zm0,12a22.56,22.56,0,0,0-11.74,3.14,23.56,23.56,0,0,0-8.42,8.41,23.71,23.71,0,0,0,0,23.55,23.59,23.59,0,0,0,8.42,8.42,23.58,23.58,0,0,0,23.48,0,23.67,23.67,0,0,0,8.42-8.42,23.71,23.71,0,0,0,0-23.55,23.64,23.64,0,0,0-8.42-8.41A22.58,22.58,0,0,0,310.62,372.53Z" transform="translate(-109.66 -85.27)"/><path class="cls-2" d="M201.37,336.52h12c-.7-3.45-2.62-5.28-6-5.18C203.56,331.57,201.52,333.27,201.37,336.52Z" transform="translate(-109.66 -85.27)"/><path class="cls-2" d="M264.63,417l-3.71-4.64c3.57-2.67,6.79-1.65,9.75,2.16,1.61,2.88.47,5.22-2.34,7.22" transform="translate(-109.66 -85.27)"/><path class="cls-2" d="M264,418.38l-2.59-3.26c2.5-1.88,4.75-1.16,6.82,1.52,1.13,2,.33,3.67-1.63,5.07" transform="translate(-109.66 -85.27)"/></svg>